<svg width="17" height="17" viewBox="0 0 17 17" fill="none" xmlns="http://www.w3.org/2000/svg">
<path d="M11.9871 15.8868C11.2338 15.8868 10.4405 15.7068 9.62047 15.3601C8.82047 15.0201 8.0138 14.5535 7.22713 13.9868C6.44713 13.4135 5.6938 12.7735 4.98047 12.0735C4.2738 11.3601 3.6338 10.6068 3.06713 9.83347C2.4938 9.03347 2.0338 8.23347 1.70713 7.46013C1.36047 6.63347 1.18713 5.83347 1.18713 5.08013C1.18713 4.56013 1.28047 4.0668 1.46047 3.6068C1.64713 3.13347 1.94713 2.69347 2.3538 2.31347C2.86713 1.8068 3.4538 1.55347 4.08047 1.55347C4.34047 1.55347 4.60713 1.61347 4.8338 1.72013C5.0938 1.84013 5.3138 2.02013 5.4738 2.26013L7.02047 4.44013C7.16047 4.63347 7.26713 4.82013 7.34047 5.0068C7.42713 5.2068 7.4738 5.4068 7.4738 5.60013C7.4738 5.85347 7.40047 6.10013 7.26047 6.33347C7.16047 6.51347 7.00713 6.7068 6.8138 6.90013L6.36047 7.37347C6.36713 7.39347 6.3738 7.4068 6.38047 7.42013C6.46047 7.56013 6.62047 7.80013 6.92713 8.16013C7.2538 8.53347 7.56047 8.87347 7.86713 9.1868C8.26047 9.57347 8.58713 9.88013 8.8938 10.1335C9.2738 10.4535 9.52047 10.6135 9.66713 10.6868L9.6538 10.7201L10.1405 10.2401C10.3471 10.0335 10.5471 9.88013 10.7405 9.78013C11.1071 9.55347 11.5738 9.51347 12.0405 9.7068C12.2138 9.78013 12.4005 9.88013 12.6005 10.0201L14.8138 11.5935C15.0605 11.7601 15.2405 11.9735 15.3471 12.2268C15.4471 12.4801 15.4938 12.7135 15.4938 12.9468C15.4938 13.2668 15.4205 13.5868 15.2805 13.8868C15.1405 14.1868 14.9671 14.4468 14.7471 14.6868C14.3671 15.1068 13.9538 15.4068 13.4738 15.6001C13.0138 15.7868 12.5138 15.8868 11.9871 15.8868ZM4.08047 2.55347C3.7138 2.55347 3.3738 2.71347 3.04713 3.03347C2.74047 3.32013 2.52713 3.63347 2.3938 3.97347C2.2538 4.32013 2.18713 4.6868 2.18713 5.08013C2.18713 5.70013 2.3338 6.37347 2.62713 7.0668C2.92713 7.77347 3.34713 8.5068 3.88047 9.24013C4.4138 9.97347 5.02047 10.6868 5.68713 11.3601C6.3538 12.0201 7.0738 12.6335 7.8138 13.1735C8.5338 13.7001 9.2738 14.1268 10.0071 14.4335C11.1471 14.9201 12.2138 15.0335 13.0938 14.6668C13.4338 14.5268 13.7338 14.3135 14.0071 14.0068C14.1605 13.8401 14.2805 13.6601 14.3805 13.4468C14.4605 13.2801 14.5005 13.1068 14.5005 12.9335C14.5005 12.8268 14.4805 12.7201 14.4271 12.6001C14.4071 12.5601 14.3671 12.4868 14.2405 12.4001L12.0271 10.8268C11.8938 10.7335 11.7738 10.6668 11.6605 10.6201C11.5138 10.5601 11.4538 10.5001 11.2271 10.6401C11.0938 10.7068 10.9738 10.8068 10.8405 10.9401L10.3338 11.4401C10.0738 11.6935 9.6738 11.7535 9.36713 11.6401L9.18713 11.5601C8.9138 11.4135 8.5938 11.1868 8.24047 10.8868C7.92047 10.6135 7.5738 10.2935 7.1538 9.88013C6.82713 9.5468 6.50047 9.19347 6.16047 8.80013C5.84713 8.43347 5.62047 8.12013 5.48047 7.86013L5.40047 7.66013C5.36047 7.5068 5.34713 7.42013 5.34713 7.3268C5.34713 7.0868 5.4338 6.87347 5.60047 6.7068L6.10047 6.1868C6.2338 6.05347 6.3338 5.9268 6.40047 5.81347C6.4538 5.7268 6.4738 5.65347 6.4738 5.5868C6.4738 5.53347 6.4538 5.45347 6.42047 5.37347C6.3738 5.2668 6.30047 5.1468 6.20713 5.02013L4.66047 2.83347C4.5938 2.74013 4.5138 2.67347 4.4138 2.6268C4.30713 2.58013 4.1938 2.55347 4.08047 2.55347ZM9.6538 10.7268L9.54713 11.1801L9.72713 10.7135C9.6938 10.7068 9.66713 10.7135 9.6538 10.7268Z" fill="#334155"/>
</svg>
