<svg width="32" height="32" viewBox="0 0 32 32" fill="none" xmlns="http://www.w3.org/2000/svg">
<path d="M12 26.3199C11.72 26.3199 11.43 26.2499 11.17 26.1099C10.6 25.8099 10.25 25.2099 10.25 24.5699V23.15C7.23 22.84 5.25 20.6199 5.25 17.4399V11.4399C5.25 7.99994 7.56 5.68994 11 5.68994H21C24.44 5.68994 26.75 7.99994 26.75 11.4399V17.4399C26.75 20.8799 24.44 23.1899 21 23.1899H17.23L12.97 26.03C12.68 26.22 12.34 26.3199 12 26.3199ZM11 7.17993C8.42 7.17993 6.75 8.84993 6.75 11.4299V17.43C6.75 20.01 8.42 21.68 11 21.68C11.41 21.68 11.75 22.02 11.75 22.43V24.56C11.75 24.69 11.83 24.75 11.88 24.78C11.93 24.81 12.03 24.84 12.14 24.77L16.59 21.81C16.71 21.73 16.86 21.68 17.01 21.68H21.01C23.59 21.68 25.26 20.01 25.26 17.43V11.4299C25.26 8.84993 23.59 7.17993 21.01 7.17993H11Z" fill="#334155"/>
<path d="M15.9998 16.1099C15.5898 16.1099 15.2498 15.7699 15.2498 15.3599V15.1499C15.2498 13.9899 16.0998 13.4199 16.4198 13.1999C16.7898 12.9499 16.9098 12.7799 16.9098 12.5199C16.9098 12.0199 16.4998 11.6099 15.9998 11.6099C15.4998 11.6099 15.0898 12.0199 15.0898 12.5199C15.0898 12.9299 14.7498 13.2699 14.3398 13.2699C13.9298 13.2699 13.5898 12.9299 13.5898 12.5199C13.5898 11.1899 14.6698 10.1099 15.9998 10.1099C17.3298 10.1099 18.4098 11.1899 18.4098 12.5199C18.4098 13.6599 17.5698 14.2299 17.2598 14.4399C16.8698 14.6999 16.7498 14.8699 16.7498 15.1499V15.3599C16.7498 15.7799 16.4098 16.1099 15.9998 16.1099Z" fill="#94A3B8"/>
<path d="M16 18.6001C15.58 18.6001 15.25 18.2601 15.25 17.8501C15.25 17.4401 15.59 17.1001 16 17.1001C16.41 17.1001 16.75 17.4401 16.75 17.8501C16.75 18.2601 16.42 18.6001 16 18.6001Z" fill="#94A3B8"/>
</svg>
