<svg width="19" height="18" viewBox="0 0 19 18" fill="none" xmlns="http://www.w3.org/2000/svg">
<path d="M6.5 9.15039H11.75" stroke="#475569" stroke-width="1.125" stroke-miterlimit="10" stroke-linecap="round" stroke-linejoin="round"/>
<path d="M6.5 12.1504H9.785" stroke="#475569" stroke-width="1.125" stroke-miterlimit="10" stroke-linecap="round" stroke-linejoin="round"/>
<path d="M8 4.5H11C12.5 4.5 12.5 3.75 12.5 3C12.5 1.5 11.75 1.5 11 1.5H8C7.25 1.5 6.5 1.5 6.5 3C6.5 4.5 7.25 4.5 8 4.5Z" stroke="#475569" stroke-width="1.125" stroke-miterlimit="10" stroke-linecap="round" stroke-linejoin="round"/>
<path d="M12.5 3.01465C14.9975 3.14965 16.25 4.07215 16.25 7.49965V11.9996C16.25 14.9996 15.5 16.4996 11.75 16.4996H7.25C3.5 16.4996 2.75 14.9996 2.75 11.9996V7.49965C2.75 4.07965 4.0025 3.14965 6.5 3.01465" stroke="#475569" stroke-width="1.125" stroke-miterlimit="10" stroke-linecap="round" stroke-linejoin="round"/>
</svg>
