<svg width="17" height="17" viewBox="0 0 17 17" fill="none" xmlns="http://www.w3.org/2000/svg">
<path d="M12.1472 15.6668H5.48055C2.54055 15.6668 1.64722 14.7735 1.64722 11.8335V5.16683C1.64722 2.22683 2.54055 1.3335 5.48055 1.3335H6.48055C7.64722 1.3335 8.01388 1.7135 8.48055 2.3335L9.48055 3.66683C9.70055 3.96016 9.73388 4.00016 10.1472 4.00016H12.1472C15.0872 4.00016 15.9806 4.8935 15.9806 7.8335V11.8335C15.9806 14.7735 15.0872 15.6668 12.1472 15.6668ZM5.48055 2.3335C3.10055 2.3335 2.64722 2.78683 2.64722 5.16683V11.8335C2.64722 14.2135 3.10055 14.6668 5.48055 14.6668H12.1472C14.5272 14.6668 14.9806 14.2135 14.9806 11.8335V7.8335C14.9806 5.4535 14.5272 5.00016 12.1472 5.00016H10.1472C9.29388 5.00016 9.01388 4.70683 8.68055 4.26683L7.68055 2.9335C7.33388 2.4735 7.23388 2.3335 6.48055 2.3335H5.48055Z" fill="#126A25"/>
</svg>
