<svg width="16" height="16" viewBox="0 0 16 16" fill="none" xmlns="http://www.w3.org/2000/svg">
<path d="M14.4467 9.53325L14.18 12.8666C14.08 13.8866 14 14.6666 12.1933 14.6666H3.80667C2 14.6666 1.92 13.8866 1.82 12.8666L1.55333 9.53325C1.5 8.97992 1.67333 8.46659 1.98666 8.07325C1.99333 8.06659 1.99333 8.06659 2 8.05992C2.36666 7.61325 2.92 7.33325 3.54 7.33325H12.46C13.08 7.33325 13.6267 7.61325 13.9867 8.04659C13.9933 8.05325 14 8.05992 14 8.06659C14.3267 8.45992 14.5067 8.97325 14.4467 9.53325Z" stroke="#126A25" stroke-width="0.996826" stroke-miterlimit="10"/>
<path opacity="0.4" d="M2.33334 7.61994V4.1866C2.33334 1.91994 2.90001 1.35327 5.16668 1.35327H6.01334C6.86001 1.35327 7.05334 1.6066 7.37334 2.03327L8.22001 3.1666C8.43334 3.4466 8.56001 3.61994 9.12668 3.61994H10.8267C13.0933 3.61994 13.66 4.1866 13.66 6.45327V7.6466" stroke="#126A25" stroke-width="0.996826" stroke-miterlimit="10" stroke-linecap="round" stroke-linejoin="round"/>
<path opacity="0.4" d="M6.28669 11.333H9.71336" stroke="#126A25" stroke-width="0.996826" stroke-miterlimit="10" stroke-linecap="round" stroke-linejoin="round"/>
</svg>
