<svg width="29" height="28" viewBox="0 0 29 28" fill="none" xmlns="http://www.w3.org/2000/svg">
<path d="M14.5238 23.9513C11.8054 23.9513 9.08708 23.5196 6.50875 22.6562C5.52875 22.3179 4.78208 21.6296 4.45542 20.7313C4.11708 19.8329 4.23375 18.8412 4.77042 17.9546L6.11208 15.7262C6.39208 15.2596 6.64875 14.3263 6.64875 13.7779V10.4062C6.64875 6.06625 10.1838 2.53125 14.5238 2.53125C18.8638 2.53125 22.3988 6.06625 22.3988 10.4062V13.7779C22.3988 14.3146 22.6554 15.2596 22.9354 15.7379L24.2654 17.9546C24.7671 18.7946 24.8604 19.8096 24.5221 20.7313C24.1837 21.6529 23.4487 22.3529 22.5271 22.6562C19.9604 23.5196 17.2421 23.9513 14.5238 23.9513ZM14.5238 4.28125C11.1521 4.28125 8.39875 7.02292 8.39875 10.4062V13.7779C8.39875 14.6296 8.04875 15.8896 7.61708 16.6246L6.27542 18.8529C6.01875 19.2846 5.94875 19.7396 6.10042 20.1246C6.24042 20.5212 6.59042 20.8246 7.06875 20.9879C11.9454 22.6212 17.1138 22.6212 21.9904 20.9879C22.4104 20.8479 22.7371 20.5329 22.8888 20.1129C23.0404 19.6929 23.0054 19.2379 22.7721 18.8529L21.4304 16.6246C20.9871 15.8662 20.6488 14.6179 20.6488 13.7662V10.4062C20.6488 7.02292 17.9071 4.28125 14.5238 4.28125Z" fill="#0F172A"/>
<path d="M16.6934 4.59793C16.6117 4.59793 16.5301 4.58626 16.4484 4.56293C16.1101 4.4696 15.7834 4.3996 15.4684 4.35293C14.4767 4.2246 13.5201 4.2946 12.6217 4.56293C12.2951 4.66793 11.9451 4.56293 11.7234 4.31793C11.5017 4.07293 11.4317 3.72293 11.5601 3.40793C12.0384 2.18293 13.2051 1.37793 14.5351 1.37793C15.8651 1.37793 17.0317 2.17126 17.5101 3.40793C17.6267 3.72293 17.5684 4.07293 17.3467 4.31793C17.1717 4.5046 16.9267 4.59793 16.6934 4.59793Z" fill="#0F172A"/>
<path d="M14.5234 26.6123C13.3684 26.6123 12.2484 26.1456 11.4318 25.329C10.6151 24.5123 10.1484 23.3923 10.1484 22.2373H11.8984C11.8984 22.9256 12.1784 23.6023 12.6684 24.0923C13.1584 24.5823 13.8351 24.8623 14.5234 24.8623C15.9701 24.8623 17.1484 23.684 17.1484 22.2373H18.8984C18.8984 24.6523 16.9384 26.6123 14.5234 26.6123Z" fill="#0F172A"/>
</svg>
