<svg width="17" height="16" viewBox="0 0 17 16" fill="none" xmlns="http://www.w3.org/2000/svg">
<path d="M4.71826 6.66634V5.33301C4.71826 3.12634 5.38493 1.33301 8.71826 1.33301C12.0516 1.33301 12.7183 3.12634 12.7183 5.33301V6.66634" stroke="white" stroke-linecap="round" stroke-linejoin="round"/>
<path d="M8.71842 12.3333C9.6389 12.3333 10.3851 11.5871 10.3851 10.6667C10.3851 9.74619 9.6389 9 8.71842 9C7.79795 9 7.05176 9.74619 7.05176 10.6667C7.05176 11.5871 7.79795 12.3333 8.71842 12.3333Z" stroke="white" stroke-linecap="round" stroke-linejoin="round"/>
<path d="M12.0518 14.667H5.38509C2.71842 14.667 2.05176 14.0003 2.05176 11.3337V10.0003C2.05176 7.33366 2.71842 6.66699 5.38509 6.66699H12.0518C14.7184 6.66699 15.3851 7.33366 15.3851 10.0003V11.3337C15.3851 14.0003 14.7184 14.667 12.0518 14.667Z" stroke="white" stroke-linecap="round" stroke-linejoin="round"/>
</svg>
