<svg width="19" height="18" viewBox="0 0 19 18" fill="none" xmlns="http://www.w3.org/2000/svg">
<path d="M4.46802 7.5C3.64302 7.5 2.96802 8.175 2.96802 9C2.96802 9.825 3.64302 10.5 4.46802 10.5C5.29302 10.5 5.96802 9.825 5.96802 9C5.96802 8.175 5.29302 7.5 4.46802 7.5Z" stroke="#475569" stroke-width="1.125"/>
<path d="M14.968 7.5C14.143 7.5 13.468 8.175 13.468 9C13.468 9.825 14.143 10.5 14.968 10.5C15.793 10.5 16.468 9.825 16.468 9C16.468 8.175 15.793 7.5 14.968 7.5Z" stroke="#475569" stroke-width="1.125"/>
<path d="M9.71802 7.5C8.89302 7.5 8.21802 8.175 8.21802 9C8.21802 9.825 8.89302 10.5 9.71802 10.5C10.543 10.5 11.218 9.825 11.218 9C11.218 8.175 10.543 7.5 9.71802 7.5Z" stroke="#475569" stroke-width="1.125"/>
</svg>
