<svg width="22" height="21" viewBox="0 0 22 21" fill="none" xmlns="http://www.w3.org/2000/svg">
<path d="M15.6547 17.1875H7.42974C6.78224 17.1875 6.12599 16.7238 5.90724 16.12L2.28474 5.97875C1.83849 4.70125 2.16224 4.115 2.51224 3.8525C2.86224 3.59 3.51849 3.4325 4.62099 4.22L8.03349 6.66125C8.13849 6.7225 8.23474 6.74875 8.30474 6.73125C8.38349 6.705 8.44474 6.635 8.48849 6.5125L10.0285 2.40875C10.4922 1.18375 11.1747 1 11.5422 1C11.9097 1 12.5922 1.18375 13.056 2.40875L14.596 6.5125C14.6397 6.62625 14.701 6.705 14.7797 6.73125C14.8585 6.7575 14.9547 6.73125 15.051 6.6525L18.2535 4.36875C19.426 3.52875 20.1085 3.695 20.4847 3.96625C20.8522 4.24625 21.1935 4.8675 20.7122 6.22375L17.1772 16.12C16.9585 16.7238 16.3022 17.1875 15.6547 17.1875ZM3.38724 5.0075C3.40474 5.13 3.43974 5.305 3.52724 5.5325L7.14974 15.6737C7.18474 15.7613 7.34224 15.875 7.42974 15.875H15.6547C15.751 15.875 15.9085 15.7613 15.9347 15.6737L19.4697 5.78625C19.5922 5.45375 19.6272 5.22625 19.636 5.095C19.5047 5.13875 19.3035 5.235 19.0147 5.445L15.8122 7.72875C15.3747 8.035 14.8585 8.13125 14.3947 7.99125C13.931 7.85125 13.5547 7.48375 13.3622 6.985L11.8222 2.88125C11.7085 2.575 11.6035 2.42625 11.5422 2.35625C11.481 2.42625 11.376 2.575 11.2622 2.8725L9.72224 6.97625C9.53849 7.475 9.16224 7.8425 8.68974 7.9825C8.22599 8.1225 7.70099 8.02625 7.27224 7.72L3.85974 5.27875C3.65849 5.13875 3.50099 5.05125 3.38724 5.0075Z" fill="#0F172A"/>
<path d="M16.3549 19.8301H6.72986C6.37111 19.8301 6.07361 19.5326 6.07361 19.1738C6.07361 18.8151 6.37111 18.5176 6.72986 18.5176H16.3549C16.7136 18.5176 17.0111 18.8151 17.0111 19.1738C17.0111 19.5326 16.7136 19.8301 16.3549 19.8301Z" fill="#0F172A"/>
<path d="M13.7299 12.8311H9.35486C8.99611 12.8311 8.69861 12.5336 8.69861 12.1748C8.69861 11.8161 8.99611 11.5186 9.35486 11.5186H13.7299C14.0886 11.5186 14.3861 11.8161 14.3861 12.1748C14.3861 12.5336 14.0886 12.8311 13.7299 12.8311Z" fill="#0F172A"/>
<path d="M10.8524 14.3613L10.8524 9.98633C10.8524 9.62758 11.1499 9.33008 11.5087 9.33008C11.8674 9.33008 12.1649 9.62758 12.1649 9.98633L12.1649 14.3613C12.1649 14.7201 11.8674 15.0176 11.5087 15.0176C11.1499 15.0176 10.8524 14.7201 10.8524 14.3613Z" fill="#0F172A"/>
</svg>
