<svg width="17" height="16" viewBox="0 0 17 16" fill="none" xmlns="http://www.w3.org/2000/svg">
<path d="M11.6871 14.1666H5.02047C2.58713 14.1666 1.18713 12.7666 1.18713 10.3333V5.66659C1.18713 3.23325 2.58713 1.83325 5.02047 1.83325H11.6871C14.1205 1.83325 15.5205 3.23325 15.5205 5.66659V10.3333C15.5205 12.7666 14.1205 14.1666 11.6871 14.1666ZM5.02047 2.83325C3.1138 2.83325 2.18713 3.75992 2.18713 5.66659V10.3333C2.18713 12.2399 3.1138 13.1666 5.02047 13.1666H11.6871C13.5938 13.1666 14.5205 12.2399 14.5205 10.3333V5.66659C14.5205 3.75992 13.5938 2.83325 11.6871 2.83325H5.02047Z" fill="#334155"/>
<path d="M8.35357 8.57998C7.79357 8.57998 7.22691 8.40665 6.79357 8.05331L4.7069 6.38665C4.49357 6.21331 4.45357 5.89998 4.62691 5.68665C4.80024 5.47331 5.11358 5.43332 5.32691 5.60665L7.41357 7.27332C7.92024 7.67998 8.78023 7.67998 9.2869 7.27332L11.3736 5.60665C11.5869 5.43332 11.9069 5.46665 12.0736 5.68665C12.2469 5.89998 12.2136 6.21998 11.9936 6.38665L9.90691 8.05331C9.48024 8.40665 8.91357 8.57998 8.35357 8.57998Z" fill="#334155"/>
</svg>
