<svg width="12" height="13" viewBox="0 0 12 13" fill="none" xmlns="http://www.w3.org/2000/svg">
<path d="M8.5 11.125H3.5C1.675 11.125 0.625 10.075 0.625 8.25V4.75C0.625 2.925 1.675 1.875 3.5 1.875H8.5C10.325 1.875 11.375 2.925 11.375 4.75V8.25C11.375 10.075 10.325 11.125 8.5 11.125ZM3.5 2.625C2.07 2.625 1.375 3.32 1.375 4.75V8.25C1.375 9.68 2.07 10.375 3.5 10.375H8.5C9.93 10.375 10.625 9.68 10.625 8.25V4.75C10.625 3.32 9.93 2.625 8.5 2.625H3.5Z" fill="#334155"/>
<path d="M5.99989 6.93498C5.57989 6.93498 5.15489 6.80499 4.82989 6.53999L3.26489 5.28999C3.10489 5.15999 3.07489 4.92498 3.20489 4.76498C3.33489 4.60498 3.56989 4.57499 3.72989 4.70499L5.29489 5.95499C5.67489 6.25999 6.31989 6.25999 6.69989 5.95499L8.26489 4.70499C8.42489 4.57499 8.66489 4.59998 8.78989 4.76498C8.91989 4.92498 8.89489 5.16499 8.72989 5.28999L7.16489 6.53999C6.84489 6.80499 6.41989 6.93498 5.99989 6.93498Z" fill="#334155"/>
</svg>
