<svg width="16" height="16" viewBox="0 0 16 16" fill="none" xmlns="http://www.w3.org/2000/svg">
<path d="M9.15332 2.34025L10.3267 4.68692C10.4867 5.01359 10.9133 5.32692 11.2733 5.38692L13.4 5.74025C14.76 5.96692 15.08 6.95359 14.1 7.92692L12.4467 9.58025C12.1667 9.86025 12.0133 10.4003 12.1 10.7869L12.5733 12.8336C12.9467 14.4536 12.0867 15.0803 10.6533 14.2336L8.65999 13.0536C8.29999 12.8403 7.70665 12.8403 7.33999 13.0536L5.34665 14.2336C3.91999 15.0803 3.05332 14.4469 3.42665 12.8336L3.89999 10.7869C3.98665 10.4003 3.83332 9.86025 3.55332 9.58025L1.89999 7.92692C0.926652 6.95359 1.23999 5.96692 2.59999 5.74025L4.72665 5.38692C5.07999 5.32692 5.50665 5.01359 5.66665 4.68692L6.83999 2.34025C7.47999 1.06692 8.51999 1.06692 9.15332 2.34025Z" fill="url(#paint0_linear_57_9164)"/>
<defs>
<linearGradient id="paint0_linear_57_9164" x1="14.2302" y1="0.235209" x2="1.10696" y2="0.727777" gradientUnits="userSpaceOnUse">
<stop stop-color="#468054"/>
<stop offset="1" stop-color="#22512E"/>
</linearGradient>
</defs>
</svg>
