<svg width="15" height="18" viewBox="0 0 15 18" fill="none" xmlns="http://www.w3.org/2000/svg">
<path d="M14.808 5.952V8.592H6.936V14.064C6.936 14.512 7 14.848 7.128 15.072C7.256 15.28 7.544 15.384 7.992 15.384C8.36 15.384 8.72 15.328 9.072 15.216C9.424 15.088 9.744 14.928 10.032 14.736C10.32 14.528 10.552 14.288 10.728 14.016C10.904 13.744 10.992 13.464 10.992 13.176C10.992 13.032 10.928 12.896 10.8 12.768C10.672 12.64 10.424 12.576 10.056 12.576C9.768 12.576 9.512 12.6 9.288 12.648L8.904 10.2C9.192 10.12 9.512 10.064 9.864 10.032C10.232 10 10.608 9.984 10.992 9.984C11.936 9.984 12.696 10.2 13.272 10.632C13.848 11.064 14.136 11.736 14.136 12.648C14.136 13.512 13.936 14.28 13.536 14.952C13.136 15.624 12.608 16.184 11.952 16.632C11.296 17.08 10.576 17.424 9.792 17.664C9.024 17.888 8.272 18 7.536 18C6.864 18 6.296 17.92 5.832 17.76C5.384 17.6 5.024 17.392 4.752 17.136C4.576 16.96 4.408 16.76 4.248 16.536C4.104 16.312 3.984 16 3.888 15.6C3.808 15.2 3.768 14.664 3.768 13.992V8.592H1.752V5.952H14.808ZM3.528 0.0239997C4.056 0.0239997 4.52 0.0879993 4.92 0.215999C5.32 0.343999 5.656 0.543999 5.928 0.816C6.248 1.12 6.496 1.544 6.672 2.088C6.848 2.632 6.936 3.4 6.936 4.392V6.048H3.768V4.512C3.768 4.112 3.736 3.776 3.672 3.504C3.608 3.232 3.48 3.032 3.288 2.904C3.096 2.76 2.808 2.688 2.424 2.688C2.216 2.688 1.992 2.712 1.752 2.76C1.528 2.808 1.296 2.88 1.056 2.976L0.144 0.671999C0.768 0.447999 1.328 0.287999 1.824 0.191999C2.32 0.0799994 2.888 0.0239997 3.528 0.0239997Z" fill="url(#paint0_linear_12_6572)"/>
<defs>
<linearGradient id="paint0_linear_12_6572" x1="2.68374" y1="22.1482" x2="22.4636" y2="12.4428" gradientUnits="userSpaceOnUse">
<stop stop-color="#126A25"/>
<stop offset="1" stop-color="#23D049"/>
</linearGradient>
</defs>
</svg>
