<svg width="18" height="18" viewBox="0 0 18 18" fill="none" xmlns="http://www.w3.org/2000/svg">
<path d="M8.99998 5.91797L8.19748 7.31297C8.01748 7.62047 8.16748 7.87547 8.51998 7.87547H9.47248C9.83248 7.87547 9.97498 8.13047 9.79498 8.43797L8.99998 9.83297" stroke="#475569" stroke-width="1.125" stroke-linecap="round" stroke-linejoin="round"/>
<path d="M6.22551 13.5301V12.6601C4.50051 11.6176 3.08301 9.58513 3.08301 7.42513C3.08301 3.71263 6.49551 0.802632 10.3505 1.64263C12.0455 2.01763 13.5305 3.14263 14.303 4.69513C15.8705 7.84513 14.2205 11.1901 11.798 12.6526V13.5226C11.798 13.7401 11.8805 14.2426 11.078 14.2426H6.94551C6.12051 14.2501 6.22551 13.9276 6.22551 13.5301Z" stroke="#475569" stroke-width="1.125" stroke-linecap="round" stroke-linejoin="round"/>
<path d="M6.375 16.5004C8.0925 16.0129 9.9075 16.0129 11.625 16.5004" stroke="#475569" stroke-width="1.125" stroke-linecap="round" stroke-linejoin="round"/>
</svg>
