<svg width="24" height="24" viewBox="0 0 24 24" fill="none" xmlns="http://www.w3.org/2000/svg">
<path d="M7.86812 18.0861C8.58562 17.3161 9.67937 17.3774 10.3094 18.2174L11.1931 19.3986C11.9019 20.3349 13.0481 20.3349 13.7569 19.3986L14.6406 18.2174C15.2706 17.3774 16.3644 17.3161 17.0819 18.0861C18.6394 19.7486 19.9081 19.1974 19.9081 16.8699V7.00863C19.9169 3.48238 19.0944 2.59863 15.7869 2.59863H9.17187C5.86437 2.59863 5.04187 3.48238 5.04187 7.00863V16.8611C5.04187 19.1974 6.31937 19.7399 7.86812 18.0861Z" stroke="#334155" stroke-width="1.3125" stroke-linecap="round" stroke-linejoin="round"/>
<path opacity="0.4" d="M9.85437 12.2241L15.1044 6.97412" stroke="#334155" stroke-width="1.3125" stroke-linecap="round" stroke-linejoin="round"/>
<path opacity="0.4" d="M15.0996 12.2241H15.1083" stroke="#334155" stroke-width="1.75" stroke-linecap="round" stroke-linejoin="round"/>
<path opacity="0.4" d="M9.85046 6.97412H9.85918" stroke="#334155" stroke-width="1.75" stroke-linecap="round" stroke-linejoin="round"/>
</svg>
