<svg width="17" height="16" viewBox="0 0 17 16" fill="none" xmlns="http://www.w3.org/2000/svg">
<path d="M8.3138 7.99967C10.1548 7.99967 11.6471 6.50729 11.6471 4.66634C11.6471 2.82539 10.1548 1.33301 8.3138 1.33301C6.47285 1.33301 4.98047 2.82539 4.98047 4.66634C4.98047 6.50729 6.47285 7.99967 8.3138 7.99967Z" stroke="#147529" stroke-linecap="round" stroke-linejoin="round"/>
<path d="M2.58691 14.6667C2.58691 12.0867 5.15358 10 8.31358 10C8.95358 10 9.57359 10.0867 10.1536 10.2467" stroke="#147529" stroke-linecap="round" stroke-linejoin="round"/>
<path d="M14.9798 11.9997C14.9798 12.213 14.9532 12.4197 14.8998 12.6197C14.8398 12.8863 14.7332 13.1463 14.5932 13.373C14.1332 14.1463 13.2865 14.6663 12.3132 14.6663C11.6265 14.6663 11.0065 14.4063 10.5398 13.9797C10.3398 13.8063 10.1665 13.5997 10.0331 13.373C9.78648 12.973 9.64648 12.4997 9.64648 11.9997C9.64648 11.2797 9.93315 10.6197 10.3998 10.1397C10.8865 9.63969 11.5665 9.33301 12.3132 9.33301C13.0998 9.33301 13.8132 9.67302 14.2932 10.2197C14.7198 10.693 14.9798 11.3197 14.9798 11.9997Z" stroke="#147529" stroke-miterlimit="10" stroke-linecap="round" stroke-linejoin="round"/>
<path d="M13.307 11.9873H11.3203" stroke="#147529" stroke-miterlimit="10" stroke-linecap="round" stroke-linejoin="round"/>
<path d="M12.3135 11.0137V13.007" stroke="#147529" stroke-miterlimit="10" stroke-linecap="round" stroke-linejoin="round"/>
</svg>
