<svg width="37" height="33" viewBox="0 0 37 33" fill="none" xmlns="http://www.w3.org/2000/svg">
<path d="M26.1663 12.2923V18.2423C26.1663 19.724 25.6763 20.9723 24.8013 21.8356C23.938 22.7106 22.6897 23.2006 21.208 23.2006V25.3123C21.208 26.1056 20.3213 26.584 19.668 26.1406L18.5363 25.394C18.6413 25.0323 18.688 24.6356 18.688 24.2156V19.4673C18.688 17.0873 17.1013 15.5007 14.7213 15.5007H6.79967C6.63633 15.5007 6.48467 15.5123 6.33301 15.524V12.2923C6.33301 9.31732 8.31634 7.33398 11.2913 7.33398H21.208C24.183 7.33398 26.1663 9.31732 26.1663 12.2923Z" stroke="#0F172A" stroke-width="1.75" stroke-miterlimit="10" stroke-linecap="round" stroke-linejoin="round"/>
<path d="M18.688 19.4667V24.215C18.688 24.635 18.6413 25.0316 18.5363 25.3933C18.1047 27.1083 16.6813 28.1817 14.7213 28.1817H11.548L8.02467 30.5267C7.49967 30.8883 6.79967 30.5033 6.79967 29.8733V28.1817C5.60967 28.1817 4.61801 27.785 3.92968 27.0967C3.22968 26.3967 2.83301 25.405 2.83301 24.215V19.4667C2.83301 17.25 4.20967 15.7217 6.33301 15.5234C6.48467 15.5117 6.63633 15.5 6.79967 15.5H14.7213C17.1013 15.5 18.688 17.0867 18.688 19.4667Z" stroke="#0F172A" stroke-width="1.75" stroke-miterlimit="10" stroke-linecap="round" stroke-linejoin="round"/>
<circle cx="29" cy="7.5" r="6.375" fill="url(#paint0_linear_586_4873)" stroke="#F8F9FA" stroke-width="1.75"/>
<defs>
<linearGradient id="paint0_linear_586_4873" x1="23.7838" y1="13.1382" x2="34.5406" y2="-0.0967011" gradientUnits="userSpaceOnUse">
<stop stop-color="#126A25"/>
<stop offset="1" stop-color="#23D049"/>
</linearGradient>
</defs>
</svg>
