<svg width="16" height="16" viewBox="0 0 16 16" fill="none" xmlns="http://www.w3.org/2000/svg">
<path d="M9.15331 2.34025L10.3266 4.68692C10.4866 5.01359 10.9133 5.32692 11.2733 5.38692L13.4 5.74025C14.76 5.96692 15.08 6.95359 14.1 7.92692L12.4466 9.58025C12.1666 9.86025 12.0133 10.4003 12.1 10.7869L12.5733 12.8336C12.9466 14.4536 12.0866 15.0803 10.6533 14.2336L8.65998 13.0536C8.29998 12.8403 7.70665 12.8403 7.33998 13.0536L5.34665 14.2336C3.91998 15.0803 3.05331 14.4469 3.42665 12.8336L3.89998 10.7869C3.98665 10.4003 3.83331 9.86025 3.55331 9.58025L1.89998 7.92692C0.926648 6.95359 1.23998 5.96692 2.59998 5.74025L4.72665 5.38692C5.07998 5.32692 5.50665 5.01359 5.66665 4.68692L6.83998 2.34025C7.47998 1.06692 8.51998 1.06692 9.15331 2.34025Z" fill="#0F172A"/>
</svg>
